{"title":"Scream the TV Series S01E01 720p mHD HDTV EN-SUB x264-[MULVAcode","uid":12082726,"size":229694677,"categoryP":"video","categoryS":"hd___tv_shows","magnet":"?xt=urn:btih:b87884a8bfa0f57d25a1228ecf5eeef378fadcae&amp;dn=Scream+the+TV+Series+S01E01+720p+mHD+HDTV+EN-SUB+x264-%5BMULVAcode&amp;tr=udp%3A%2F%2Ftracker.openbittorrent.com%3A80&amp;tr=udp%3A%2F%2Fopen.demonii.com%3A1337&amp;tr=udp%3A%2F%2Ftracker.coppersurfer.tk%3A6969&amp;tr=udp%3A%2F%2Fexodus.desync.com%3A6969","seeders":0,"leechers":0,"uploader":"Mulva1989","files":1,"time":1435823728,"description":"[b] Scream the TV Series S01E01 720p mHD HDTV EN-SUB x264-[MULVAcoded] [/b]\n\nIn the premiere, the murder of a high-school student in the small town of Lakewood conjures memories of a similar murder that occurred 20 years earlier in the community.\n\n[img]https://yuq.me/users/50/321/Uj7MhKJZlY.jpg[/img]\n[img]https://yuq.me/users/50/321/nfC5kSuwWG.jpg[/img]\n\nVideo\nID : 1\nFormat : AVC\nFormat/Info : Advanced Video Codec\nFormat profile : &lt;a class=&quot;__cf_email__&quot; href=&quot;/cdn-cgi/l/email-protection&quot; data-cfemail=&quot;c189a8a6a9818df4eff1&quot;&gt;[email&amp;#160;protected]&lt;/a&gt;&lt;script data-cfhash='f9e31' type=&quot;text/javascript&quot;&gt;\n/* &lt;![CDATA[ */!function(){try{var t=&quot;currentScript&quot;in document?document.currentScript:function(){for(var t=document.getElementsByTagName(&quot;script&quot;),e=t.length;e--;)if(t[e].getAttribute(&quot;data-cfhash&quot;))return t[e]}();if(t&amp;&amp;t.previousSibling){var e,r,n,i,c=t.previousSibling,a=c.getAttribute(&quot;data-cfemail&quot;);if(a){for(e=&quot;&quot;,r=parseInt(a.substr(0,2),16),n=2;a.length-n;n+=2)i=parseInt(a.substr(n,2),16)^r,e+=String.fromCharCode(i);e=document.createTextNode(e),c.parentNode.replaceChild(e,c)}t.parentNode.removeChild(t);}}catch(u){}}()/* ]]&gt; */&lt;/script&gt;\nFormat settings, CABAC : Yes\nFormat settings, ReFrames : 16 frames\nCodec ID : avc1\nCodec ID/Info : Advanced Video Coding\nDuration : 43mn 17s\nBit rate : 606 Kbps\nWidth : 1 280 pixels\nHeight : 720 pixels\nDisplay aspect ratio : 16:9\nFrame rate mode : Variable\nFrame rate : 23.976 fps\nMinimum frame rate : 23.974 fps\nMaximum frame rate : 23.981 fps\nColor space : YUV\nChroma subsampling : 4:2:0\nBit depth : 8 bits\nScan type : Progressive\nBits/(Pixel*Frame) : 0.027\nStream size : 188 MiB (86%)\nWriting library : x264 core 130 r2273 b3065e6\nEncoding settings : cabac=1 / ref=16 / deblock=1:0:0 / analyse=0x3:0x113 / me=umh / subme=8 / psy=1 / psy_rd=1.00:0.00 / mixed_ref=1 / me_range=16 / chroma_me=1 / trellis=1 / 8x8dct=1 / cqm=0 / deadzone=21,11 / fast_pskip=1 / chroma_qp_offset=-2 / threads=6 / lookahead_threads=3 / sliced_threads=0 / nr=0 / decimate=1 / interlaced=0 / bluray_compat=0 / constrained_intra=0 / bframes=16 / b_pyramid=2 / b_adapt=2 / b_bias=0 / direct=3 / weightb=1 / open_gop=0 / weightp=2 / keyint=240 / keyint_min=24 / scenecut=40 / intra_refresh=0 / rc_lookahead=50 / rc=crf / mbtree=1 / crf=27.0 / qcomp=0.60 / qpmin=0 / qpmax=69 / qpstep=4 / ip_ratio=1.40 / aq=1:1.00\nEncoded date : UTC 2015-07-02 01:26:08\nTagged date : UTC 2015-07-02 05:31:59\nColor primaries : BT.709\nTransfer characteristics : BT.709\nMatrix coefficients : BT.709\nColor range : Limited\n\nAudio\nID : 2\nFormat : AAC\nFormat/Info : Advanced Audio Codec\nFormat profile : LC\nCodec ID : 40\nDuration : 43mn 17s\nBit rate mode : Variable\nBit rate : 96.0 Kbps\nMaximum bit rate : 118 Kbps\nChannel(s) : 2 channels\nChannel positions : Front: L R\nSampling rate : 48.0 KHz\nCompression mode : Lossy\nStream size : 29.7 MiB (14%)\nTitle : Stereo\nEncoded date : UTC 2015-07-02 01:26:08\nTagged date : UTC 2015-07-02 05:31:55\n\nText\nID : 3\nFormat : Timed Text\nMuxing mode : sbtl\nCodec ID : tx3g\nDuration : 43mn 11s\nBit rate mode : Variable\nBit rate : 78 bps\nStream size : 24.6 KiB (0%)\nLanguage : English\nEncoded date : UTC 2015-07-02 01:26:08\nTagged date : UTC 2015-07-02 05:31:55","torrent":{"xt":"urn:btih:b87884a8bfa0f57d25a1228ecf5eeef378fadcae","amp;dn":"Scream+the+TV+Series+S01E01+720p+mHD+HDTV+EN-SUB+x264-%5BMULVAcode","amp;tr":["udp%3A%2F%2Ftracker.openbittorrent.com%3A80","udp%3A%2F%2Fopen.demonii.com%3A1337","udp%3A%2F%2Ftracker.coppersurfer.tk%3A6969","udp%3A%2F%2Fexodus.desync.com%3A6969"],"infoHash":"b87884a8bfa0f57d25a1228ecf5eeef378fadcae","infoHashBuffer":{"type":"Buffer","data":[184,120,132,168,191,160,245,125,37,161,34,142,207,94,238,243,120,250,220,174]},"announce":[],"urlList":[]}}